<svg width="410" height="404" viewBox="0 0 410 404" fill="none" xmlns="http://www.w3.org/2000/svg">
<path d="M255.049 12.5117L402.003 350.084C404.894 356.677 399.699 363.9 392.54 362.802L289.716 346.961C287.33 346.585 285.018 347.851 283.978 350.045L250.022 422.916C247.069 429.314 237.472 428.202 235.682 421.345L177.772 197.982C176.596 193.398 180.508 189.118 185.182 189.843L257.637 201.111C264.494 202.174 268.959 194.472 264.771 189.247L137.192 32.2967C132.177 26.1226 139.14 17.3849 146.285 21.5676L242.844 78.366C245.189 79.7341 248.07 79.1438 249.761 76.9879L253.27 72.5098C256.7 68.051 263.721 68.2024 266.938 72.8216L319.93 147.551C323.543 152.763 331.639 152.099 334.29 146.359L360.173 89.0455C362.445 84.0134 358.013 78.3946 352.596 79.4441L264.564 96.7539C261.08 97.4305 258.044 95.008 257.543 91.4813L245.161 5.21645C244.426 -0.117619 250.934 -3.84635 255.049 12.5117Z" fill="url(#paint0_linear)"/>
<defs>
<linearGradient id="paint0_linear" x1="5.00017" y1="4.99998" x2="370" y2="404" gradientUnits="userSpaceOnUse">
<stop stop-color="#41D1FF"/>
<stop offset="1" stop-color="#BD34FE"/>
</linearGradient>
</defs>
</svg>
